<svg width="32" height="32" viewBox="0 0 32 32" fill="none" xmlns="http://www.w3.org/2000/svg">
<path d="M13 27.8C15.3734 26.8667 14.8534 24.2933 13.6534 22.6667C12.4667 21 10.8267 19.8533 9.17336 18.7467C7.99346 18.0035 6.94013 17.0762 6.05335 16C5.68002 15.56 4.92002 14.7467 5.69336 14.5867C6.48002 14.4267 7.84002 15.2 8.53336 15.4933C9.74669 16 10.9467 16.5867 12.0667 17.28L13.4134 15.0133C11.3334 13.64 8.66669 12.4267 6.18669 12.0667C4.77336 11.8533 3.28002 12.1467 2.80002 13.68C2.37335 15 3.05335 16.3333 3.82669 17.3733C5.65335 19.8133 8.49336 20.9867 10.6134 23.0933C11.0667 23.5333 11.6134 24.0533 11.88 24.6667C12.16 25.2533 12.0934 25.2933 11.4667 25.2933C9.81336 25.2933 7.74669 24 6.40002 23.1467L5.05335 25.4133C7.09336 26.6667 10.5067 28.6267 13 27.8ZM27.7867 7.00001C28.08 6.70667 28.08 6.22667 27.7867 5.94667L26.0534 4.21334C25.914 4.07813 25.7275 4.0025 25.5334 4.0025C25.3392 4.0025 25.1527 4.07813 25.0134 4.21334L23.6534 5.57334L26.4267 8.34667M14.6667 14.56V17.3333H17.44L25.64 9.13334L22.8667 6.36001L14.6667 14.56Z" fill="white"/>
</svg>
