<svg width="141" height="124" viewBox="0 0 141 124" fill="none" xmlns="http://www.w3.org/2000/svg">
<path opacity="0.9" d="M62.5738 79.3246C59.1694 73.493 56.6162 59.7303 62.5738 52.2326C68.5314 44.7349 73.6379 73.8926 73.6379 73.8926C73.6379 73.8926 76.1911 63.4961 83.8509 60.9969C91.5107 58.4977 86.7678 73.8926 83.8509 78.4915C80.934 83.0904 77.1227 86.208 71.9357 85.9892C66.9993 85.7809 64.8167 83.1666 62.5738 79.3246Z" fill="white" stroke="white"/>
<path opacity="0.9" d="M80.9415 81.8396C85.4665 76.3787 89.5866 62.9785 83.0379 54.9916C76.4892 47.0048 68.1225 75.4228 68.1225 75.4228C68.1225 75.4228 65.8718 64.8814 56.8996 61.689C47.9273 58.4966 52.4114 74.196 55.5458 79.026C58.6803 83.8561 62.9997 87.3017 69.2233 87.5695C75.1464 87.8243 77.9603 85.4375 80.9415 81.8396Z" fill="#DFEC50" fill-opacity="0.8"/>
<rect x="3.5" y="18.5" width="134" height="102" rx="16.5" stroke="white" stroke-width="7"/>
<rect x="95" y="1" width="30" height="17" rx="3" fill="white" stroke="white" stroke-width="2"/>
</svg>
