<svg width="179" height="31" viewBox="0 0 179 31" fill="none" xmlns="http://www.w3.org/2000/svg">
<g opacity="0.9">
<path d="M32.9883 21.2871C33.0729 21.1178 33.1608 20.929 33.252 20.7207C33.3431 20.5059 33.4277 20.2747 33.5059 20.0273L33.7695 19.3828C33.6523 19.207 33.5319 19.0182 33.4082 18.8164C33.291 18.6081 33.1836 18.3965 33.0859 18.1816C32.9883 17.9668 32.9069 17.752 32.8418 17.5371C32.7832 17.3223 32.7539 17.1139 32.7539 16.9121C32.7539 16.8991 32.8027 16.8893 32.9004 16.8828C33.0046 16.8698 33.1315 16.86 33.2812 16.8535C33.4375 16.847 33.6035 16.8438 33.7793 16.8438C33.9616 16.8372 34.1276 16.834 34.2773 16.834C34.4336 16.8275 34.5605 16.8242 34.6582 16.8242C34.7624 16.8177 34.8145 16.8145 34.8145 16.8145C34.9642 16.4238 35.1107 16.0527 35.2539 15.7012C35.3971 15.3496 35.5404 14.9948 35.6836 14.6367C35.8268 14.2786 35.9701 13.9141 36.1133 13.543C36.2565 13.1654 36.3997 12.7617 36.543 12.332C36.8164 11.5247 37.0833 10.8151 37.3438 10.2031C37.6042 9.59115 37.8483 9.02148 38.0762 8.49414C38.1022 8.42904 38.1445 8.37044 38.2031 8.31836C38.2682 8.25977 38.3366 8.21094 38.4082 8.17188C38.4798 8.13281 38.5482 8.10026 38.6133 8.07422C38.6849 8.04818 38.7402 8.02865 38.7793 8.01562C38.8053 8.00911 38.903 7.97982 39.0723 7.92773C39.248 7.87565 39.4466 7.82031 39.668 7.76172C39.8893 7.70312 40.1074 7.65104 40.3223 7.60547C40.5436 7.5599 40.7194 7.53711 40.8496 7.53711H41.0254C41.1296 7.53711 41.2272 7.56315 41.3184 7.61523C41.416 7.66081 41.4811 7.75521 41.5137 7.89844C41.8262 8.69922 42.1582 9.57487 42.5098 10.5254C42.8678 11.4694 43.2161 12.5111 43.5547 13.6504C43.737 14.2624 43.916 14.8418 44.0918 15.3887C44.2676 15.9355 44.4434 16.4694 44.6191 16.9902C44.7949 17.5111 44.9707 18.0319 45.1465 18.5527C45.3288 19.0736 45.5143 19.6107 45.7031 20.1641C45.7617 20.3984 45.8203 20.584 45.8789 20.7207C45.944 20.8574 46.0026 20.9648 46.0547 21.043C46.1068 21.1211 46.1491 21.1797 46.1816 21.2188C46.2142 21.2513 46.2305 21.2871 46.2305 21.3262C46.2305 21.3652 46.1686 21.4043 46.0449 21.4434L43.9453 22.127C43.7891 22.1855 43.6296 22.2441 43.4668 22.3027C43.304 22.3613 43.151 22.4134 43.0078 22.459C42.8646 22.5046 42.7376 22.5404 42.627 22.5664C42.5228 22.599 42.4479 22.6152 42.4023 22.6152H42.3438C42.2526 22.6152 42.1875 22.5859 42.1484 22.5273C42.1094 22.4753 42.0833 22.4232 42.0703 22.3711C42.0052 22.1562 41.9401 21.9642 41.875 21.7949C41.8099 21.6191 41.7448 21.4466 41.6797 21.2773C41.6211 21.1016 41.5592 20.916 41.4941 20.7207C41.4355 20.5254 41.377 20.2943 41.3184 20.0273C41.3053 19.9948 41.2695 19.9688 41.2109 19.9492C41.1523 19.9232 41.0807 19.9036 40.9961 19.8906C40.918 19.8776 40.8333 19.8711 40.7422 19.8711C40.651 19.8646 40.5664 19.8613 40.4883 19.8613C40.2409 19.8613 40.0391 19.8646 39.8828 19.8711C39.7331 19.8711 39.5996 19.8743 39.4824 19.8809C39.3652 19.8809 39.2513 19.8841 39.1406 19.8906C39.0365 19.8906 38.9062 19.8906 38.75 19.8906C38.5612 19.8906 38.3659 19.8906 38.1641 19.8906C37.9688 19.8841 37.7897 19.8776 37.627 19.8711L37.0703 19.8516C36.901 20.3203 36.7318 20.7598 36.5625 21.1699C36.3932 21.5801 36.2109 22.0033 36.0156 22.4395C36.0026 22.4915 35.9701 22.5339 35.918 22.5664C35.8724 22.599 35.8236 22.6152 35.7715 22.6152C35.7324 22.6152 35.7096 22.612 35.7031 22.6055C35.0716 22.3776 34.541 22.153 34.1113 21.9316C33.6816 21.7103 33.3073 21.4954 32.9883 21.2871ZM39.5703 12.5078C39.4141 13.0872 39.2578 13.6146 39.1016 14.0898C38.9518 14.5586 38.8118 14.9753 38.6816 15.3398C38.5579 15.7044 38.4505 16.0137 38.3594 16.2676C38.2682 16.515 38.2031 16.707 38.1641 16.8438V16.9316C38.1641 16.9707 38.1608 16.9967 38.1543 17.0098H40.498C40.4264 16.6908 40.3483 16.3685 40.2637 16.043C40.1855 15.7174 40.1074 15.3757 40.0293 15.0176C39.9512 14.6595 39.873 14.2754 39.7949 13.8652C39.7168 13.4551 39.6419 13.0026 39.5703 12.5078ZM54.1992 16.4434C54.2188 16.235 54.2383 16.0169 54.2578 15.7891C54.2839 15.5612 54.3132 15.3236 54.3457 15.0762C54.196 14.6855 53.9844 14.3698 53.7109 14.1289C53.4375 13.8815 53.0957 13.7578 52.6855 13.7578C52.2819 13.7578 51.9401 13.875 51.6602 14.1094C51.3802 14.3372 51.1556 14.6204 50.9863 14.959C50.8171 15.2975 50.6934 15.6556 50.6152 16.0332C50.5436 16.4043 50.5078 16.7331 50.5078 17.0195C50.5078 17.3711 50.5273 17.7194 50.5664 18.0645C50.612 18.4095 50.6803 18.722 50.7715 19.002C50.8691 19.2819 50.9961 19.5098 51.1523 19.6855C51.3086 19.8548 51.5039 19.9395 51.7383 19.9395C52.3112 19.9199 52.7767 19.7897 53.1348 19.5488C53.4928 19.3079 53.7793 19.015 53.9941 18.6699L54.1992 16.4434ZM57.6074 21.0137C57.6074 21.0267 57.6042 21.043 57.5977 21.0625C57.5977 21.0755 57.5977 21.0885 57.5977 21.1016C57.5977 21.1341 57.5977 21.1602 57.5977 21.1797C57.6042 21.1992 57.6074 21.2188 57.6074 21.2383C57.6074 21.2969 57.5846 21.3457 57.5391 21.3848C57.5 21.4173 57.3926 21.4564 57.2168 21.502L54.5996 22.3516C54.528 22.3776 54.4336 22.4102 54.3164 22.4492C54.1992 22.4883 54.0853 22.5078 53.9746 22.5078C53.8835 22.5078 53.8021 22.485 53.7305 22.4395C53.6654 22.3939 53.6328 22.3092 53.6328 22.1855C53.6328 22.0684 53.6328 21.974 53.6328 21.9023C53.6393 21.8307 53.6426 21.7656 53.6426 21.707C53.6491 21.6419 53.6556 21.5736 53.6621 21.502C53.6751 21.4303 53.6882 21.3359 53.7012 21.2188C53.2129 21.6094 52.7083 21.9219 52.1875 22.1562C51.6732 22.3906 51.1296 22.5078 50.5566 22.5078C49.9316 22.5078 49.375 22.3581 48.8867 22.0586C48.4049 21.7656 47.998 21.3717 47.666 20.877C47.334 20.3757 47.0801 19.806 46.9043 19.168C46.735 18.5234 46.6504 17.8529 46.6504 17.1562C46.6504 16.2513 46.7969 15.4277 47.0898 14.6855C47.3893 13.9368 47.793 13.2988 48.3008 12.7715C48.8086 12.2376 49.401 11.8275 50.0781 11.541C50.7552 11.248 51.4746 11.1016 52.2363 11.1016C52.6465 11.1016 53.0371 11.209 53.4082 11.4238C53.7858 11.6387 54.1406 11.9154 54.4727 12.2539C54.4922 11.9349 54.515 11.5898 54.541 11.2188C54.5671 10.8411 54.5931 10.4603 54.6191 10.0762C54.6452 9.68555 54.6712 9.30143 54.6973 8.92383C54.7233 8.54622 54.7461 8.20117 54.7656 7.88867C54.7656 7.83008 54.7852 7.78451 54.8242 7.75195C54.8698 7.71289 54.9805 7.67057 55.1562 7.625L57.9004 6.9707C57.972 6.95768 58.0664 6.92839 58.1836 6.88281C58.3008 6.83724 58.4147 6.81445 58.5254 6.81445C58.61 6.81445 58.6882 6.83398 58.7598 6.87305C58.8379 6.91211 58.877 6.98698 58.877 7.09766C58.877 7.11068 58.8737 7.13997 58.8672 7.18555C58.8672 7.22461 58.8672 7.25065 58.8672 7.26367L57.6074 21.0137ZM66.9727 11.1992C66.9987 11.1341 67.0475 11.1016 67.1191 11.1016C67.1322 11.1016 67.1452 11.1048 67.1582 11.1113C67.1712 11.1113 67.1842 11.1113 67.1973 11.1113C67.6855 11.3001 68.1868 11.4564 68.7012 11.5801C69.2155 11.6973 69.7266 11.8112 70.2344 11.9219C70.3581 11.9479 70.4199 12.0195 70.4199 12.1367C70.4199 12.2214 70.3809 12.3516 70.3027 12.5273L66.2793 21.082C66.2272 21.1992 66.1816 21.2936 66.1426 21.3652C66.1035 21.4368 66.0645 21.4954 66.0254 21.541C65.9863 21.5866 65.944 21.6191 65.8984 21.6387C65.8529 21.6582 65.7975 21.6745 65.7324 21.6875C65.2376 21.7852 64.7363 21.8958 64.2285 22.0195C63.7207 22.1497 63.1934 22.3092 62.6465 22.498C62.6335 22.498 62.6237 22.498 62.6172 22.498C62.6107 22.5046 62.6042 22.5078 62.5977 22.5078H62.5293C62.4967 22.5078 62.4707 22.4948 62.4512 22.4688C62.4316 22.4492 62.4186 22.4297 62.4121 22.4102C62.3145 22.1302 62.2005 21.7689 62.0703 21.3262C61.9466 20.8835 61.8099 20.3887 61.6602 19.8418C61.5104 19.2949 61.3542 18.7122 61.1914 18.0938C61.0286 17.4753 60.8626 16.847 60.6934 16.209C60.5241 15.571 60.3548 14.9395 60.1855 14.3145C60.0228 13.6829 59.8633 13.0872 59.707 12.5273C59.6484 12.3255 59.6191 12.1823 59.6191 12.0977C59.6191 12.0065 59.6712 11.9479 59.7754 11.9219C60.2832 11.8112 60.8105 11.6973 61.3574 11.5801C61.9043 11.4564 62.4219 11.3001 62.9102 11.1113C62.9297 11.1048 62.959 11.1016 62.998 11.1016C63.0827 11.1016 63.1283 11.1341 63.1348 11.1992L64.4238 17.7617C64.4564 17.6836 64.5117 17.5436 64.5898 17.3418C64.668 17.1335 64.7624 16.8861 64.873 16.5996C64.9837 16.3132 65.1042 15.9974 65.2344 15.6523C65.3711 15.3073 65.5078 14.9557 65.6445 14.5977C65.7878 14.2396 65.9277 13.8848 66.0645 13.5332C66.2012 13.1751 66.3281 12.8431 66.4453 12.5371C66.569 12.2311 66.6764 11.9609 66.7676 11.7266C66.8587 11.4922 66.9271 11.3164 66.9727 11.1992ZM76.4355 11.1016C77.054 11.1016 77.6139 11.2188 78.1152 11.4531C78.623 11.681 79.056 11.9805 79.4141 12.3516C79.7786 12.7161 80.0586 13.1263 80.2539 13.582C80.4492 14.0378 80.5469 14.4935 80.5469 14.9492C80.5469 15.3529 80.4232 15.7598 80.1758 16.1699C79.9284 16.5736 79.5801 16.9382 79.1309 17.2637C78.6882 17.5892 78.1543 17.8529 77.5293 18.0547C76.9043 18.2565 76.2174 18.3574 75.4688 18.3574C75.0781 18.3574 74.668 18.3184 74.2383 18.2402C74.2643 18.5202 74.3457 18.7611 74.4824 18.9629C74.6191 19.1647 74.7917 19.3307 75 19.4609C75.2083 19.5911 75.4427 19.6888 75.7031 19.7539C75.9701 19.8125 76.2435 19.8418 76.5234 19.8418C76.8359 19.8418 77.1354 19.8158 77.4219 19.7637C77.7148 19.7051 77.9948 19.6302 78.2617 19.5391C78.5286 19.4479 78.7858 19.347 79.0332 19.2363C79.2806 19.1257 79.515 19.015 79.7363 18.9043C79.7949 18.8913 79.8438 18.8815 79.8828 18.875C79.9284 18.862 79.9707 18.8555 80.0098 18.8555C80.0098 18.8555 80.0065 18.9076 80 19.0117C80 19.1159 80 19.2624 80 19.4512C80 19.64 79.9967 19.8678 79.9902 20.1348C79.9902 20.4017 79.987 20.6979 79.9805 21.0234C80 21.056 80.013 21.0885 80.0195 21.1211C80.026 21.1536 80.0293 21.1797 80.0293 21.1992C80.0293 21.2773 79.9577 21.362 79.8145 21.4531C79.6712 21.5443 79.4824 21.6387 79.248 21.7363C79.0202 21.834 78.7565 21.9284 78.457 22.0195C78.1641 22.1107 77.8646 22.1921 77.5586 22.2637C77.2526 22.3418 76.9564 22.4004 76.6699 22.4395C76.3835 22.485 76.1328 22.5078 75.918 22.5078C75.2148 22.5078 74.5312 22.3841 73.8672 22.1367C73.2096 21.8958 72.6237 21.5475 72.1094 21.0918C71.6016 20.6361 71.1947 20.0827 70.8887 19.4316C70.5827 18.7806 70.4297 18.0482 70.4297 17.2344C70.4297 16.3815 70.5762 15.584 70.8691 14.8418C71.1621 14.0931 71.5723 13.4421 72.0996 12.8887C72.6335 12.3353 73.2682 11.8991 74.0039 11.5801C74.7396 11.2611 75.5501 11.1016 76.4355 11.1016ZM76.3184 13.6992C76.0514 13.6992 75.804 13.7578 75.5762 13.875C75.3548 13.9857 75.1497 14.1484 74.9609 14.3633C74.7786 14.5716 74.6191 14.8255 74.4824 15.125C74.3457 15.418 74.235 15.7435 74.1504 16.1016C74.821 15.9844 75.3776 15.8607 75.8203 15.7305C76.263 15.6003 76.6178 15.4701 76.8848 15.3398C77.1517 15.2031 77.3405 15.0697 77.4512 14.9395C77.5618 14.8027 77.6172 14.6725 77.6172 14.5488C77.6172 14.4316 77.5716 14.321 77.4805 14.2168C77.3958 14.1126 77.2884 14.0215 77.1582 13.9434C77.028 13.8652 76.8848 13.8066 76.7285 13.7676C76.5788 13.722 76.4421 13.6992 76.3184 13.6992ZM89.873 22.3516C89.8014 22.3711 89.707 22.4004 89.5898 22.4395C89.4727 22.485 89.3587 22.5078 89.248 22.5078C89.1569 22.5078 89.0755 22.485 89.0039 22.4395C88.9388 22.3939 88.9062 22.3158 88.9062 22.2051V22.1465C88.9453 21.7949 88.9779 21.4987 89.0039 21.2578C89.0299 21.0104 89.0527 20.7891 89.0723 20.5938C89.0983 20.3919 89.1178 20.1934 89.1309 19.998C89.1504 19.7962 89.1732 19.5651 89.1992 19.3047C89.2253 19.0378 89.2546 18.7253 89.2871 18.3672C89.3262 18.0026 89.3717 17.5501 89.4238 17.0098C89.4564 16.6777 89.4857 16.3392 89.5117 15.9941C89.5378 15.6491 89.5508 15.3301 89.5508 15.0371C89.5508 14.8418 89.5345 14.6628 89.502 14.5C89.4759 14.3307 89.4238 14.1875 89.3457 14.0703C89.2741 13.9466 89.1732 13.8522 89.043 13.7871C88.9128 13.722 88.7467 13.6895 88.5449 13.6895C88.3952 13.6895 88.1868 13.722 87.9199 13.7871C87.6595 13.8522 87.3991 13.9596 87.1387 14.1094C86.8783 14.2591 86.6471 14.4577 86.4453 14.7051C86.2435 14.946 86.1296 15.2454 86.1035 15.6035C86.0645 16.0853 86.0286 16.4987 85.9961 16.8438C85.9635 17.1823 85.9342 17.472 85.9082 17.7129C85.8822 17.9473 85.8594 18.1393 85.8398 18.2891C85.8268 18.4388 85.8171 18.5658 85.8105 18.6699C85.804 18.696 85.7943 18.7676 85.7812 18.8848C85.7682 19.002 85.752 19.1419 85.7324 19.3047C85.7194 19.4674 85.7031 19.64 85.6836 19.8223C85.6706 20.0046 85.6543 20.1771 85.6348 20.3398C85.6217 20.5026 85.6087 20.6426 85.5957 20.7598C85.5892 20.877 85.5859 20.9486 85.5859 20.9746C85.5859 21.0267 85.5859 21.0723 85.5859 21.1113C85.5924 21.1439 85.5957 21.1764 85.5957 21.209C85.5957 21.2611 85.5697 21.3066 85.5176 21.3457C85.472 21.3783 85.3646 21.4173 85.1953 21.4629L82.6074 22.3516C82.5358 22.3776 82.4414 22.4102 82.3242 22.4492C82.207 22.4883 82.0931 22.5078 81.9824 22.5078C81.8913 22.5078 81.8099 22.485 81.7383 22.4395C81.6732 22.3939 81.6406 22.3158 81.6406 22.2051L82.5293 12.2246C82.5488 12.0098 82.5716 11.8633 82.5977 11.7852C82.6302 11.7005 82.7051 11.6452 82.8223 11.6191C83.4147 11.502 84.0234 11.3848 84.6484 11.2676C85.2734 11.1439 85.8822 10.9876 86.4746 10.7988C86.5267 10.7988 86.556 10.8086 86.5625 10.8281C86.5755 10.8411 86.582 10.8639 86.582 10.8965C86.582 10.9095 86.5788 10.929 86.5723 10.9551C86.5723 10.9811 86.5625 11.0397 86.543 11.1309C86.5299 11.222 86.5072 11.362 86.4746 11.5508C86.4486 11.7331 86.4095 11.9902 86.3574 12.3223C86.8066 12.0618 87.2266 11.8535 87.6172 11.6973C88.0143 11.5345 88.3854 11.4108 88.7305 11.3262C89.082 11.235 89.4108 11.1764 89.7168 11.1504C90.0228 11.1178 90.3092 11.1016 90.5762 11.1016C91.4941 11.1016 92.1615 11.3815 92.5781 11.9414C92.9948 12.4948 93.2031 13.3281 93.2031 14.4414C93.2031 14.5977 93.1999 14.7604 93.1934 14.9297C93.1868 15.0924 93.1738 15.2617 93.1543 15.4375L92.7051 19.6367C92.6725 19.9102 92.653 20.1641 92.6465 20.3984C92.64 20.6263 92.6367 20.8932 92.6367 21.1992C92.6367 21.2513 92.6367 21.2969 92.6367 21.3359C92.6432 21.3685 92.6465 21.3978 92.6465 21.4238C92.6465 21.4824 92.6204 21.528 92.5684 21.5605C92.5228 21.5931 92.4154 21.6354 92.2461 21.6875L89.873 22.3516ZM99.9414 14.4707C99.8503 15.1543 99.7624 15.8379 99.6777 16.5215C99.5996 17.1986 99.5508 17.8333 99.5312 18.4258C99.5312 18.6797 99.5508 18.8913 99.5898 19.0605C99.6289 19.2298 99.6842 19.3633 99.7559 19.4609C99.834 19.5586 99.9251 19.6302 100.029 19.6758C100.133 19.7148 100.251 19.7344 100.381 19.7344C100.589 19.7344 100.817 19.7051 101.064 19.6465C101.312 19.5814 101.559 19.5 101.807 19.4023C101.885 19.3698 101.95 19.347 102.002 19.334C102.061 19.3145 102.109 19.3047 102.148 19.3047C102.214 19.3047 102.256 19.334 102.275 19.3926C102.301 19.4512 102.324 19.5553 102.344 19.7051C102.37 19.8483 102.406 20.0436 102.451 20.291C102.497 20.5384 102.572 20.8509 102.676 21.2285C102.682 21.2611 102.686 21.2904 102.686 21.3164C102.692 21.3359 102.695 21.3555 102.695 21.375C102.695 21.4661 102.66 21.5312 102.588 21.5703C102.523 21.6094 102.412 21.6549 102.256 21.707C101.989 21.7982 101.706 21.8926 101.406 21.9902C101.113 22.0814 100.82 22.166 100.527 22.2441C100.241 22.3223 99.9642 22.3841 99.6973 22.4297C99.4303 22.4818 99.196 22.5078 98.9941 22.5078C97.9069 22.5078 97.1126 22.2376 96.6113 21.6973C96.1165 21.1569 95.8691 20.3333 95.8691 19.2266C95.8691 19.0378 95.8757 18.8457 95.8887 18.6504C95.9017 18.4486 95.918 18.2402 95.9375 18.0254C96.0026 17.3743 96.0579 16.7591 96.1035 16.1797C96.1556 15.5938 96.2077 15.0339 96.2598 14.5H95.2344C94.8828 14.5 94.6289 14.487 94.4727 14.4609C94.3164 14.4284 94.2383 14.3665 94.2383 14.2754C94.2383 14.2493 94.2708 14.181 94.3359 14.0703C94.401 13.9531 94.4824 13.8164 94.5801 13.6602C94.6842 13.4974 94.7949 13.3249 94.9121 13.1426C95.0293 12.9603 95.14 12.791 95.2441 12.6348C95.3548 12.472 95.4492 12.332 95.5273 12.2148C95.6055 12.0977 95.6543 12.026 95.6738 12H96.3672C96.4258 11.5052 96.4714 11.0918 96.5039 10.7598C96.543 10.4212 96.5723 10.1413 96.5918 9.91992C96.6178 9.69857 96.6406 9.5293 96.6602 9.41211C96.6797 9.28841 96.6992 9.19727 96.7188 9.13867C96.7448 9.08008 96.7741 9.04427 96.8066 9.03125C96.8457 9.01172 96.8945 8.99544 96.9531 8.98242C97.2461 8.92383 97.5293 8.87174 97.8027 8.82617C98.0762 8.77409 98.3496 8.72201 98.623 8.66992C98.8965 8.61784 99.1732 8.55924 99.4531 8.49414C99.7396 8.42253 100.036 8.34115 100.342 8.25C100.361 8.25 100.374 8.25 100.381 8.25C100.387 8.24349 100.4 8.24023 100.42 8.24023C100.498 8.24023 100.537 8.26628 100.537 8.31836V8.33789C100.505 8.69596 100.452 9.19401 100.381 9.83203C100.316 10.4701 100.241 11.1927 100.156 12H102.773C102.826 12 102.874 12.0195 102.92 12.0586C102.972 12.0911 102.998 12.1497 102.998 12.2344C102.998 12.2669 102.959 12.3841 102.881 12.5859C102.803 12.7878 102.692 13.0514 102.549 13.377L102.197 14.168C102.152 14.2656 102.103 14.3372 102.051 14.3828C102.005 14.4284 101.908 14.4577 101.758 14.4707H99.9414ZM114.121 20.7891C114.102 21.0039 114.076 21.1536 114.043 21.2383C114.01 21.3164 113.939 21.3685 113.828 21.3945C113.275 21.5508 112.695 21.7103 112.09 21.873C111.491 22.0293 110.908 22.2376 110.342 22.498C110.322 22.5046 110.293 22.5078 110.254 22.5078C110.202 22.5078 110.169 22.4948 110.156 22.4688C110.15 22.4427 110.146 22.4134 110.146 22.3809C110.146 22.3678 110.146 22.3451 110.146 22.3125C110.153 22.2799 110.163 22.2181 110.176 22.127C110.189 22.0423 110.205 21.9219 110.225 21.7656C110.251 21.6094 110.283 21.401 110.322 21.1406C109.593 21.6159 108.945 21.9609 108.379 22.1758C107.819 22.3971 107.321 22.5078 106.885 22.5078C105.798 22.5078 105.003 22.2474 104.502 21.7266C104.007 21.1992 103.76 20.4147 103.76 19.373C103.76 19.1842 103.763 18.9922 103.77 18.7969C103.776 18.5951 103.796 18.39 103.828 18.1816C103.9 17.4134 103.962 16.7559 104.014 16.209C104.066 15.6556 104.108 15.1868 104.141 14.8027C104.173 14.4186 104.199 14.1061 104.219 13.8652C104.245 13.6178 104.264 13.4128 104.277 13.25C104.297 13.0872 104.31 12.9538 104.316 12.8496C104.329 12.7389 104.342 12.6315 104.355 12.5273C104.382 12.319 104.404 12.1725 104.424 12.0879C104.45 12.0033 104.525 11.9479 104.648 11.9219C104.954 11.8633 105.244 11.8112 105.518 11.7656C105.798 11.7135 106.071 11.6615 106.338 11.6094C106.611 11.5508 106.888 11.4889 107.168 11.4238C107.448 11.3587 107.744 11.2806 108.057 11.1895C108.07 11.1895 108.083 11.1895 108.096 11.1895C108.109 11.1829 108.122 11.1797 108.135 11.1797C108.213 11.1797 108.252 11.2057 108.252 11.2578V11.2773C108.226 11.4987 108.203 11.707 108.184 11.9023C108.164 12.0977 108.145 12.2995 108.125 12.5078C108.105 12.7096 108.083 12.9277 108.057 13.1621C108.037 13.3965 108.011 13.6699 107.979 13.9824C107.946 14.2884 107.907 14.6432 107.861 15.0469C107.816 15.4505 107.76 15.9193 107.695 16.4531C107.656 16.8438 107.617 17.2344 107.578 17.625C107.539 18.0091 107.52 18.3672 107.52 18.6992C107.52 18.8815 107.533 19.0508 107.559 19.207C107.585 19.3568 107.63 19.487 107.695 19.5977C107.767 19.7018 107.858 19.7832 107.969 19.8418C108.079 19.9004 108.223 19.9297 108.398 19.9297C108.535 19.9297 108.721 19.9004 108.955 19.8418C109.189 19.7767 109.424 19.6693 109.658 19.5195C109.893 19.3633 110.098 19.1615 110.273 18.9141C110.456 18.6602 110.56 18.3411 110.586 17.957C110.632 17.3125 110.671 16.7754 110.703 16.3457C110.742 15.9095 110.775 15.5449 110.801 15.252C110.827 14.9525 110.85 14.7018 110.869 14.5C110.889 14.2982 110.905 14.1061 110.918 13.9238C110.938 13.735 110.954 13.5365 110.967 13.3281C110.98 13.1133 110.993 12.8464 111.006 12.5273C111.025 12.3125 111.048 12.166 111.074 12.0879C111.107 12.0033 111.182 11.9479 111.299 11.9219C111.891 11.8047 112.497 11.6875 113.115 11.5703C113.734 11.4466 114.339 11.2904 114.932 11.1016C114.984 11.1016 115.013 11.1113 115.02 11.1309C115.033 11.1439 115.039 11.1667 115.039 11.1992L114.121 20.7891ZM124.287 14.0508C124.15 14.0378 123.997 14.0247 123.828 14.0117C123.659 13.9922 123.48 13.9824 123.291 13.9824C123.005 13.9824 122.712 14.0085 122.412 14.0605C122.119 14.1061 121.846 14.2005 121.592 14.3438C121.338 14.487 121.12 14.6855 120.938 14.9395C120.755 15.1868 120.638 15.5091 120.586 15.9062C120.54 16.388 120.501 16.7852 120.469 17.0977C120.443 17.4036 120.423 17.6576 120.41 17.8594C120.397 18.0547 120.384 18.2142 120.371 18.3379C120.365 18.4551 120.358 18.5658 120.352 18.6699C120.352 18.696 120.345 18.7676 120.332 18.8848C120.326 19.002 120.312 19.1387 120.293 19.2949C120.273 19.4512 120.254 19.6204 120.234 19.8027C120.221 19.985 120.205 20.1543 120.186 20.3105C120.166 20.4668 120.15 20.6035 120.137 20.7207C120.13 20.8379 120.127 20.9095 120.127 20.9355C120.127 20.9876 120.127 21.0332 120.127 21.0723C120.133 21.1048 120.137 21.1374 120.137 21.1699C120.137 21.222 120.111 21.2676 120.059 21.3066C120.013 21.3392 119.906 21.3783 119.736 21.4238L117.148 22.3516C117.077 22.3776 116.982 22.4102 116.865 22.4492C116.748 22.4883 116.634 22.5078 116.523 22.5078C116.432 22.5078 116.351 22.485 116.279 22.4395C116.214 22.3939 116.182 22.3158 116.182 22.2051L117.021 12.5273C117.041 12.3125 117.064 12.166 117.09 12.0879C117.122 12.0033 117.197 11.9479 117.314 11.9219C117.907 11.8047 118.519 11.6875 119.15 11.5703C119.782 11.4466 120.394 11.2904 120.986 11.1016C121.038 11.1016 121.068 11.1113 121.074 11.1309C121.087 11.1439 121.094 11.1667 121.094 11.1992C121.094 11.2122 121.09 11.2318 121.084 11.2578C121.084 11.2839 121.074 11.3424 121.055 11.4336C121.042 11.5247 121.019 11.6647 120.986 11.8535C120.96 12.0358 120.921 12.293 120.869 12.625C121.169 12.3906 121.497 12.1758 121.855 11.9805C122.22 11.7852 122.585 11.6191 122.949 11.4824C123.314 11.3392 123.665 11.2285 124.004 11.1504C124.342 11.0658 124.639 11.0234 124.893 11.0234L124.287 14.0508ZM130.732 11.1016C131.351 11.1016 131.911 11.2188 132.412 11.4531C132.92 11.681 133.353 11.9805 133.711 12.3516C134.076 12.7161 134.355 13.1263 134.551 13.582C134.746 14.0378 134.844 14.4935 134.844 14.9492C134.844 15.3529 134.72 15.7598 134.473 16.1699C134.225 16.5736 133.877 16.9382 133.428 17.2637C132.985 17.5892 132.451 17.8529 131.826 18.0547C131.201 18.2565 130.514 18.3574 129.766 18.3574C129.375 18.3574 128.965 18.3184 128.535 18.2402C128.561 18.5202 128.643 18.7611 128.779 18.9629C128.916 19.1647 129.089 19.3307 129.297 19.4609C129.505 19.5911 129.74 19.6888 130 19.7539C130.267 19.8125 130.54 19.8418 130.82 19.8418C131.133 19.8418 131.432 19.8158 131.719 19.7637C132.012 19.7051 132.292 19.6302 132.559 19.5391C132.826 19.4479 133.083 19.347 133.33 19.2363C133.577 19.1257 133.812 19.015 134.033 18.9043C134.092 18.8913 134.141 18.8815 134.18 18.875C134.225 18.862 134.268 18.8555 134.307 18.8555C134.307 18.8555 134.303 18.9076 134.297 19.0117C134.297 19.1159 134.297 19.2624 134.297 19.4512C134.297 19.64 134.294 19.8678 134.287 20.1348C134.287 20.4017 134.284 20.6979 134.277 21.0234C134.297 21.056 134.31 21.0885 134.316 21.1211C134.323 21.1536 134.326 21.1797 134.326 21.1992C134.326 21.2773 134.255 21.362 134.111 21.4531C133.968 21.5443 133.779 21.6387 133.545 21.7363C133.317 21.834 133.053 21.9284 132.754 22.0195C132.461 22.1107 132.161 22.1921 131.855 22.2637C131.549 22.3418 131.253 22.4004 130.967 22.4395C130.68 22.485 130.43 22.5078 130.215 22.5078C129.512 22.5078 128.828 22.3841 128.164 22.1367C127.507 21.8958 126.921 21.5475 126.406 21.0918C125.898 20.6361 125.492 20.0827 125.186 19.4316C124.88 18.7806 124.727 18.0482 124.727 17.2344C124.727 16.3815 124.873 15.584 125.166 14.8418C125.459 14.0931 125.869 13.4421 126.396 12.8887C126.93 12.3353 127.565 11.8991 128.301 11.5801C129.036 11.2611 129.847 11.1016 130.732 11.1016ZM130.615 13.6992C130.348 13.6992 130.101 13.7578 129.873 13.875C129.652 13.9857 129.447 14.1484 129.258 14.3633C129.076 14.5716 128.916 14.8255 128.779 15.125C128.643 15.418 128.532 15.7435 128.447 16.1016C129.118 15.9844 129.674 15.8607 130.117 15.7305C130.56 15.6003 130.915 15.4701 131.182 15.3398C131.449 15.2031 131.637 15.0697 131.748 14.9395C131.859 14.8027 131.914 14.6725 131.914 14.5488C131.914 14.4316 131.868 14.321 131.777 14.2168C131.693 14.1126 131.585 14.0215 131.455 13.9434C131.325 13.8652 131.182 13.8066 131.025 13.7676C130.876 13.722 130.739 13.6992 130.615 13.6992Z" fill="white"/>
<path d="M154.336 8.74805C154.368 8.63086 154.404 8.53646 154.443 8.46484C154.482 8.38672 154.57 8.33138 154.707 8.29883L157.588 7.63477C157.601 7.63477 157.617 7.63151 157.637 7.625C157.656 7.61849 157.673 7.61523 157.686 7.61523C157.777 7.61523 157.839 7.6543 157.871 7.73242C157.91 7.81055 157.93 7.88542 157.93 7.95703C157.93 7.97005 157.926 7.99609 157.92 8.03516C157.92 8.07422 157.917 8.10026 157.91 8.11328L153.867 20.3984C153.763 20.6654 153.675 20.8835 153.604 21.0527C153.538 21.2155 153.47 21.3522 153.398 21.4629C153.333 21.5671 153.255 21.6549 153.164 21.7266C153.079 21.7982 152.962 21.8698 152.812 21.9414C152.669 22.013 152.487 22.0944 152.266 22.1855C152.044 22.2832 151.764 22.4134 151.426 22.5762C151.309 22.6348 151.217 22.6641 151.152 22.6641C151.048 22.6641 150.97 22.625 150.918 22.5469C150.866 22.4688 150.824 22.3809 150.791 22.2832L149.121 16.3359L147.031 20.6426C146.999 20.7207 146.924 20.8249 146.807 20.9551C146.689 21.0853 146.556 21.2188 146.406 21.3555C146.263 21.4922 146.117 21.6257 145.967 21.7559C145.824 21.8796 145.706 21.9805 145.615 22.0586C145.531 22.1302 145.439 22.2018 145.342 22.2734C145.251 22.3451 145.156 22.4102 145.059 22.4688C144.961 22.5273 144.867 22.5729 144.775 22.6055C144.691 22.6445 144.609 22.6641 144.531 22.6641C144.362 22.6641 144.251 22.5697 144.199 22.3809L140.41 9.02148C140.397 8.9694 140.381 8.91732 140.361 8.86523C140.348 8.81315 140.342 8.76432 140.342 8.71875C140.342 8.55599 140.381 8.41927 140.459 8.30859C140.537 8.19792 140.674 8.10352 140.869 8.02539C141.064 7.94727 141.325 7.88542 141.65 7.83984C141.976 7.78776 142.389 7.74544 142.891 7.71289C143.125 7.68034 143.32 7.65755 143.477 7.64453C143.639 7.63151 143.776 7.625 143.887 7.625C144.076 7.625 144.199 7.6543 144.258 7.71289C144.316 7.77148 144.368 7.86914 144.414 8.00586L146.426 15.75L148.096 12.8789L147.422 9.93945C147.383 9.7832 147.367 9.66602 147.373 9.58789C147.373 9.43815 147.412 9.31771 147.49 9.22656C147.568 9.13542 147.699 9.06055 147.881 9.00195C148.063 8.94336 148.301 8.89128 148.594 8.8457C148.893 8.80013 149.258 8.74805 149.688 8.68945C149.876 8.66341 150.039 8.64388 150.176 8.63086C150.312 8.61784 150.43 8.61133 150.527 8.61133C150.723 8.61133 150.856 8.64062 150.928 8.69922C150.999 8.75781 151.051 8.85221 151.084 8.98242L152.412 14.998L154.336 8.74805ZM158.252 17.8594C158.337 16.9674 158.421 16.0853 158.506 15.2129C158.59 14.3405 158.665 13.4453 158.73 12.5273C158.743 12.3125 158.763 12.166 158.789 12.0879C158.822 12.0033 158.896 11.9479 159.014 11.9219C159.567 11.8112 160.146 11.6973 160.752 11.5801C161.357 11.4564 161.943 11.3001 162.51 11.1113C162.529 11.1048 162.559 11.1016 162.598 11.1016C162.669 11.1016 162.705 11.1276 162.705 11.1797L161.826 20.6914C161.807 20.9062 161.784 21.056 161.758 21.1406C161.732 21.2188 161.66 21.2708 161.543 21.2969C160.99 21.4661 160.43 21.6549 159.863 21.8633C159.297 22.0716 158.698 22.2832 158.066 22.498C158.047 22.5046 158.018 22.5078 157.979 22.5078C157.907 22.5078 157.871 22.4753 157.871 22.4102C157.871 22.4036 157.878 22.3158 157.891 22.1465C157.904 21.9772 157.92 21.7591 157.939 21.4922C157.965 21.2253 157.992 20.9258 158.018 20.5938C158.044 20.2617 158.07 19.9297 158.096 19.5977C158.128 19.2656 158.158 18.9466 158.184 18.6406C158.21 18.3346 158.232 18.0742 158.252 17.8594ZM158.984 10.0664C159.004 9.78646 159.017 9.57161 159.023 9.42188C159.036 9.27214 159.046 9.16146 159.053 9.08984C159.059 9.01172 159.062 8.96289 159.062 8.94336C159.062 8.92383 159.062 8.91081 159.062 8.9043C159.069 8.89128 159.072 8.87174 159.072 8.8457C159.079 8.81315 159.085 8.7513 159.092 8.66016C159.098 8.5625 159.108 8.42253 159.121 8.24023C159.134 8.05794 159.154 7.80729 159.18 7.48828C159.193 7.27344 159.212 7.12695 159.238 7.04883C159.271 6.96419 159.346 6.90885 159.463 6.88281C160.016 6.77214 160.596 6.6582 161.201 6.54102C161.807 6.41732 162.393 6.26107 162.959 6.07227C162.979 6.06576 163.008 6.0625 163.047 6.0625C163.066 6.10156 163.092 6.1276 163.125 6.14062L163.154 6.16016L162.939 8.83594C162.92 9.05078 162.894 9.20052 162.861 9.28516C162.835 9.36979 162.767 9.42188 162.656 9.44141C162.103 9.54557 161.543 9.65951 160.977 9.7832C160.41 9.9069 159.811 10.0306 159.18 10.1543C159.16 10.1608 159.131 10.1641 159.092 10.1641C159.02 10.1641 158.984 10.1315 158.984 10.0664ZM165.068 22.1465C165.075 22.0749 165.088 21.9219 165.107 21.6875C165.133 21.4466 165.163 21.1439 165.195 20.7793C165.228 20.4147 165.264 19.998 165.303 19.5293C165.348 19.054 165.397 18.5462 165.449 18.0059C165.501 17.459 165.553 16.8893 165.605 16.2969C165.664 15.7044 165.723 15.1055 165.781 14.5H164.482C164.131 14.5 163.877 14.487 163.721 14.4609C163.564 14.4284 163.486 14.3665 163.486 14.2754C163.486 14.2493 163.519 14.181 163.584 14.0703C163.649 13.9531 163.73 13.8164 163.828 13.6602C163.932 13.4974 164.043 13.3249 164.16 13.1426C164.277 12.9603 164.388 12.791 164.492 12.6348C164.603 12.472 164.697 12.332 164.775 12.2148C164.854 12.0977 164.902 12.026 164.922 12H166.113L166.309 10.4473C166.4 9.62695 166.562 8.93685 166.797 8.37695C167.038 7.81706 167.334 7.36458 167.686 7.01953C168.044 6.67448 168.451 6.42708 168.906 6.27734C169.362 6.1276 169.85 6.05273 170.371 6.05273C170.892 6.05273 171.432 6.11784 171.992 6.24805C172.559 6.37174 173.128 6.54427 173.701 6.76562C173.825 6.81771 173.916 6.86328 173.975 6.90234C174.04 6.9349 174.072 6.98047 174.072 7.03906C174.072 7.09115 174.049 7.15951 174.004 7.24414C173.796 7.64779 173.639 7.97331 173.535 8.2207C173.438 8.4681 173.359 8.66341 173.301 8.80664C173.242 8.94987 173.193 9.04753 173.154 9.09961C173.115 9.14518 173.057 9.16797 172.979 9.16797C172.939 9.16797 172.897 9.1582 172.852 9.13867C172.812 9.11914 172.764 9.09635 172.705 9.07031C172.477 8.98568 172.246 8.91081 172.012 8.8457C171.784 8.77409 171.566 8.73828 171.357 8.73828C171.064 8.73828 170.811 8.82943 170.596 9.01172C170.387 9.19401 170.221 9.53906 170.098 10.0469C170.026 10.3398 169.967 10.6556 169.922 10.9941C169.876 11.3327 169.837 11.668 169.805 12H172.354C172.406 12 172.454 12.0195 172.5 12.0586C172.552 12.0911 172.578 12.1497 172.578 12.2344C172.578 12.2669 172.539 12.3841 172.461 12.5859C172.383 12.7878 172.272 13.0514 172.129 13.377L171.777 14.168C171.732 14.2656 171.683 14.3372 171.631 14.3828C171.585 14.4284 171.488 14.4577 171.338 14.4707H169.648C169.577 15.1478 169.508 15.8184 169.443 16.4824C169.378 17.1465 169.316 17.7715 169.258 18.3574C169.199 18.9368 169.147 19.4544 169.102 19.9102C169.056 20.3594 169.02 20.7077 168.994 20.9551C168.988 20.9746 168.984 21.0104 168.984 21.0625C168.984 21.0885 168.984 21.1113 168.984 21.1309C168.991 21.1504 168.994 21.1667 168.994 21.1797C168.994 21.2383 168.971 21.2871 168.926 21.3262C168.887 21.3587 168.779 21.3978 168.604 21.4434L166.035 22.3516C165.964 22.3776 165.869 22.4102 165.752 22.4492C165.635 22.4883 165.521 22.5078 165.41 22.5078C165.299 22.5078 165.215 22.4818 165.156 22.4297C165.098 22.3776 165.068 22.2832 165.068 22.1465ZM173.115 17.8594C173.2 16.9674 173.285 16.0853 173.369 15.2129C173.454 14.3405 173.529 13.4453 173.594 12.5273C173.607 12.3125 173.626 12.166 173.652 12.0879C173.685 12.0033 173.76 11.9479 173.877 11.9219C174.43 11.8112 175.01 11.6973 175.615 11.5801C176.221 11.4564 176.807 11.3001 177.373 11.1113C177.393 11.1048 177.422 11.1016 177.461 11.1016C177.533 11.1016 177.568 11.1276 177.568 11.1797L176.689 20.6914C176.67 20.9062 176.647 21.056 176.621 21.1406C176.595 21.2188 176.523 21.2708 176.406 21.2969C175.853 21.4661 175.293 21.6549 174.727 21.8633C174.16 22.0716 173.561 22.2832 172.93 22.498C172.91 22.5046 172.881 22.5078 172.842 22.5078C172.77 22.5078 172.734 22.4753 172.734 22.4102C172.734 22.4036 172.741 22.3158 172.754 22.1465C172.767 21.9772 172.783 21.7591 172.803 21.4922C172.829 21.2253 172.855 20.9258 172.881 20.5938C172.907 20.2617 172.933 19.9297 172.959 19.5977C172.992 19.2656 173.021 18.9466 173.047 18.6406C173.073 18.3346 173.096 18.0742 173.115 17.8594ZM173.848 10.0664C173.867 9.78646 173.88 9.57161 173.887 9.42188C173.9 9.27214 173.91 9.16146 173.916 9.08984C173.923 9.01172 173.926 8.96289 173.926 8.94336C173.926 8.92383 173.926 8.91081 173.926 8.9043C173.932 8.89128 173.936 8.87174 173.936 8.8457C173.942 8.81315 173.949 8.7513 173.955 8.66016C173.962 8.5625 173.971 8.42253 173.984 8.24023C173.997 8.05794 174.017 7.80729 174.043 7.48828C174.056 7.27344 174.076 7.12695 174.102 7.04883C174.134 6.96419 174.209 6.90885 174.326 6.88281C174.88 6.77214 175.459 6.6582 176.064 6.54102C176.67 6.41732 177.256 6.26107 177.822 6.07227C177.842 6.06576 177.871 6.0625 177.91 6.0625C177.93 6.10156 177.956 6.1276 177.988 6.14062L178.018 6.16016L177.803 8.83594C177.783 9.05078 177.757 9.20052 177.725 9.28516C177.699 9.36979 177.63 9.42188 177.52 9.44141C176.966 9.54557 176.406 9.65951 175.84 9.7832C175.273 9.9069 174.674 10.0306 174.043 10.1543C174.023 10.1608 173.994 10.1641 173.955 10.1641C173.883 10.1641 173.848 10.1315 173.848 10.0664Z" fill="#DFEC50"/>
</g>
<path opacity="0.9" d="M7.99999 21C5.99995 17.5 4.5 9.2398 8 4.73979C11.5 0.239775 14.5 17.7398 14.5 17.7398C14.5 17.7398 16 11.5 20.5 10C24.9999 8.5 22.2136 17.7398 20.5 20.5C18.7863 23.2602 16.5472 25.1313 13.5 25C10.5999 24.875 9.31768 23.3059 7.99999 21Z" fill="white" stroke="white"/>
<path opacity="0.9" d="M18.6767 22.3772C21.4081 19.0809 23.895 10.9923 19.9422 6.17132C15.9893 1.35034 10.939 18.5038 10.939 18.5038C10.939 18.5038 9.58046 12.1409 4.16467 10.2139C-1.25112 8.28694 1.45553 17.7633 3.34753 20.6788C5.23952 23.5943 7.84679 25.6742 11.6035 25.8358C15.1787 25.9896 16.8772 24.5489 18.6767 22.3772Z" fill="#DFEC50" fill-opacity="0.8"/>
</svg>
