<svg width="34" height="34" viewBox="0 0 34 34" fill="none" xmlns="http://www.w3.org/2000/svg">
<g clip-path="url(#clip0_10_179)">
<path d="M17 25.5C15.7392 25.5 14.535 25.2166 13.4584 24.7208C16.3767 23.375 18.4167 20.4283 18.4167 17C18.4167 13.5716 16.3767 10.625 13.4584 9.27914C14.535 8.78331 15.7392 8.49998 17 8.49998C19.2544 8.49998 21.4164 9.39551 23.0104 10.9896C24.6045 12.5836 25.5 14.7456 25.5 17C25.5 19.2543 24.6045 21.4163 23.0104 23.0104C21.4164 24.6044 19.2544 25.5 17 25.5ZM28.3334 12.3108V5.66664H21.6892L17 0.977478L12.3109 5.66664H5.66671V12.3108L0.977539 17L5.66671 21.6891V28.3333H12.3109L17 33.0225L21.6892 28.3333H28.3334V21.6891L33.0225 17L28.3334 12.3108Z" fill="white"/>
</g>
<defs>
<clipPath id="clip0_10_179">
<rect width="34" height="34" fill="white"/>
</clipPath>
</defs>
</svg>
